<svg width="22" height="22" viewBox="0 0 22 22" fill="none" xmlns="http://www.w3.org/2000/svg">
  <path d="M18.3333 9.16671C18.3333 14.6667 11 20.1667 11 20.1667C11 20.1667 3.66666 14.6667 3.66666 9.16671C3.66666 7.22179 4.43927 5.35652 5.81454 3.98126C7.18981 2.60599 9.05507 1.83337 11 1.83337C12.9449 1.83337 14.8102 2.60599 16.1854 3.98126C17.5607 5.35652 18.3333 7.22179 18.3333 9.16671Z" stroke="#00318F" stroke-width="1.7" stroke-linecap="round" stroke-linejoin="round"/>
  <path d="M11 11.4583C12.2657 11.4583 13.2917 10.4323 13.2917 9.16667C13.2917 7.90101 12.2657 6.875 11 6.875C9.73436 6.875 8.70834 7.90101 8.70834 9.16667C8.70834 10.4323 9.73436 11.4583 11 11.4583Z" stroke="#FF2B3A" stroke-width="1.7" stroke-linecap="round" stroke-linejoin="round"/>
</svg>
