<svg width="24" height="24" viewBox="0 0 24 24" fill="none" xmlns="http://www.w3.org/2000/svg">
<rect width="24" height="24" fill="black"/>
<g id="&#208;&#160;&#208;&#176;&#209;&#129;&#208;&#191;&#208;&#184;&#209;&#129;&#208;&#176;&#208;&#189;&#208;&#184;&#208;&#181; &#208;&#178;&#209;&#128;&#208;&#176;&#209;&#135;&#208;&#176;">
<path d="M-333 -600C-333 -615.464 -320.464 -628 -305 -628H32C47.464 -628 60 -615.464 60 -600V196C60 211.464 47.464 224 32 224H-305C-320.464 224 -333 211.464 -333 196V-600Z" fill="#F5F8FD"/>
<g id="&#208;&#159;&#209;&#128;&#208;&#190;&#208;&#186;&#209;&#128;&#209;&#131;&#209;&#130;&#208;&#186;&#208;&#176;" clip-path="url(#clip0_4_3)">
<g id="&#208;&#161;&#208;&#190;&#208;&#180;&#208;&#181;&#209;&#128;&#208;&#182;&#208;&#184;&#208;&#188;&#208;&#190;&#208;&#181;">
<g id="&#208;&#148;&#208;&#176;&#209;&#130;&#208;&#176;">
<g id="go:&#208;&#161;&#208;&#178;&#208;&#190;&#208;&#177;&#208;&#190;&#208;&#180;&#208;&#189;&#209;&#139;&#208;&#185; &#208;&#180;&#208;&#181;&#208;&#189;&#209;&#140;">
<path d="M-8 4C-8 -2.62742 -2.62742 -8 4 -8H24C30.6274 -8 36 -2.62742 36 4V20C36 26.6274 30.6274 32 24 32H4C-2.62742 32 -8 26.6274 -8 20V4Z" fill="white"/>
<g id="&#208;&#152;&#208;&#186;&#208;&#190;&#208;&#189;&#208;&#186;&#208;&#176; / chevron">
<path id="Vector" d="M9 18L15 12L9 6" stroke="#00318F" stroke-width="1.7" stroke-linecap="round" stroke-linejoin="round"/>
</g>
</g>
</g>
</g>
</g>
</g>
<defs>
<clipPath id="clip0_4_3">
<rect width="393" height="664" fill="white" transform="translate(-333 -528)"/>
</clipPath>
</defs>
</svg>
