<svg width="24" height="24" viewBox="0 0 24 24" fill="none" xmlns="http://www.w3.org/2000/svg">
<rect width="24" height="24" fill="black"/>
<g id="&#208;&#154;&#208;&#187;&#208;&#184;&#208;&#189;&#208;&#184;&#208;&#186;&#208;&#184;">
<path d="M-40 -462C-40 -477.464 -27.464 -490 -12 -490H325C340.464 -490 353 -477.464 353 -462V334C353 349.464 340.464 362 325 362H-12C-27.464 362 -40 349.464 -40 334V-462Z" fill="#F5F8FD"/>
<g id="&#208;&#159;&#209;&#128;&#208;&#190;&#208;&#186;&#209;&#128;&#209;&#131;&#209;&#130;&#208;&#186;&#208;&#176;" clip-path="url(#clip0_4_2)">
<g id="&#208;&#161;&#208;&#190;&#208;&#180;&#208;&#181;&#209;&#128;&#208;&#182;&#208;&#184;&#208;&#188;&#208;&#190;&#208;&#181;">
<g id="url:phone">
<path d="M-16 -8C-16 -19.0457 -7.04569 -28 4 -28H309C320.046 -28 329 -19.0457 329 -8V32C329 43.0457 320.046 52 309 52H4C-7.0457 52 -16 43.0457 -16 32V-8Z" fill="white"/>
<g id="&#208;&#152;&#208;&#186;&#208;&#190;&#208;&#189;&#208;&#186;&#208;&#176; / phone">
<path id="Vector" d="M7 3L10 8L7 11C9 14 10 15 13 17L16 14L21 17C20 21 17 22 14 20C7 17 3 11 3 6C3 4 5 3 7 3Z" stroke="#00318F" stroke-width="1.7" stroke-linecap="round" stroke-linejoin="round"/>
</g>
</g>
</g>
</g>
</g>
<defs>
<clipPath id="clip0_4_2">
<rect width="393" height="752" fill="white" transform="translate(-40 -390)"/>
</clipPath>
</defs>
</svg>
